# xmcd
#
# Track frame offsets:
# 150
# 16197
# 31463
# 47472
# 61104
# 75693
# 92213
# 106631
# 120135
# 132780
# 147056
# 160511
# 173641
# 186571
# 200964
# 215228
# 230926
# 247345
# 263709
# 279579
# 294035
# 308909
# 321812
#
# Disc length: 4518 seconds
#
#
# Revision: 0
# Processed by: cddbd v1.5.2PL0 Copyright (c) Steve Scherf et al.
# Submitted via: FreeRIP 2.945 
#
DISCID=4511a417
DTITLE=Fergus-J1998 - 1000White-Women07
DYEAR=1998
DGENRE=Native American
TTITLE0=0701
TTITLE1=0702
TTITLE2=0703
TTITLE3=0704
TTITLE4=0705
TTITLE5=0706
TTITLE6=0707
TTITLE7=0708
TTITLE8=0709
TTITLE9=0710
TTITLE10=0711
TTITLE11=0712
TTITLE12=0713
TTITLE13=0714
TTITLE14=0715
TTITLE15=0716
TTITLE16=0717
TTITLE17=0718
TTITLE18=0719
TTITLE19=0720
TTITLE20=0721
TTITLE21=0722
TTITLE22=0723
EXTD=One Thousand White Women\nby Jim Fergus - read by Laura Hicks\nFiction BBC Audio Books America
EXTT0=
EXTT1=
EXTT2=
EXTT3=
EXTT4=
EXTT5=
EXTT6=
EXTT7=
EXTT8=
EXTT9=
EXTT10=
EXTT11=
EXTT12=
EXTT13=
EXTT14=
EXTT15=
EXTT16=
EXTT17=
EXTT18=
EXTT19=
EXTT20=
EXTT21=
EXTT22=
PLAYORDER=
